<?xml version="1.0" standalone="no"?><!DOCTYPE svg PUBLIC "-//W3C//DTD SVG 1.1//EN"
        "http://www.w3.org/Graphics/SVG/1.1/DTD/svg11.dtd">
<svg t="1683792358683" class="icon" viewBox="0 0 1024 1024" version="1.1" xmlns="http://www.w3.org/2000/svg" p-id="2380"
     xmlns:xlink="http://www.w3.org/1999/xlink" width="200" height="200">
    <path d="M1024 512q0 14.857143-10.857143 25.714286l-146.285714 146.285714q-10.857143 10.857143-25.714286 10.857143t-25.714286-10.857143-10.857142-25.714286v-73.142857H219.428571v73.142857q0 14.857143-10.857142 25.714286t-25.714286 10.857143-25.714286-10.857143L10.857143 537.714286Q0 526.857143 0 512t10.857143-25.714286l146.285714-146.285714q10.857143-10.857143 25.714286-10.857143t25.714286 10.857143 10.857142 25.714286v73.142857h585.142858V365.714286q0-14.857143 10.857142-25.714286t25.714286-10.857143 25.714286 10.857143l146.285714 146.285714q10.857143 10.857143 10.857143 25.714286z"
          p-id="2381"></path>
</svg>
