<?xml version="1.0" standalone="no"?><!DOCTYPE svg PUBLIC "-//W3C//DTD SVG 1.1//EN" "http://www.w3.org/Graphics/SVG/1.1/DTD/svg11.dtd"><svg t="1684204544813" class="icon" viewBox="0 0 1024 1024" version="1.1" xmlns="http://www.w3.org/2000/svg" p-id="1923" xmlns:xlink="http://www.w3.org/1999/xlink" width="200" height="200"><path d="M785.06666667 853.33333332c0-21.33820907-17.67131413-39.00952427-39.00952427-39.00952426s-39.00952427 17.67131413-39.0095232 39.00952426 17.67131413 39.00952427 39.0095232 39.00952427 39.00952427-17.67131413 39.00952427-39.00952427z m156.03809493 0c0-21.33820907-17.67131413-39.00952427-39.0095232-39.00952426s-39.00952427 17.67131413-39.00952427 39.00952426 17.67131413 39.00952427 39.00952427 39.00952427 39.00952427-17.67131413 39.0095232-39.00952427z m78.01904747-136.53333333v195.0476192a58.51428587 58.51428587 0 0 1-58.5142848 58.51428587h-897.21904854A58.51428587 58.51428587 0 0 1 4.87619093 911.84761919v-195.0476192A58.51428587 58.51428587 0 0 1 63.39047573 658.28571412h283.4432l82.27108587 82.8952384c22.54750507 21.92335253 51.80464747 34.13333333 82.8952384 34.13333334s60.34773333-12.2099808 82.8952384-34.13333334L677.79047573 658.28571412h282.81904854a58.51428587 58.51428587 0 0 1 58.5142848 58.51428587z m-198.0903616-346.83367573a38.38537173 38.38537173 0 0 1-8.54308587 42.67641813l-273.06666667 273.06666667c-7.2947808 7.91893333-17.67131413 11.58582827-27.42369493 11.58582933s-20.12891413-3.66689493-27.42369493-11.58582933l-273.06666667-273.06666667a38.38537173 38.38537173 0 0 1-8.54308587-42.67641813C209.0520384 355.96190506 223.09546667 346.20952426 238.93333333 346.20952426h156.03809494V73.14285759c0-21.33820907 17.67131413-39.00952427 39.00952426-39.00952427h156.03809494c21.33820907 0 39.00952427 17.67131413 39.00952426 39.00952427v273.06666667h156.03809494c15.83786667 0 29.88129493 9.7523808 35.9667808 23.7568z" p-id="1924"></path></svg>