<?xml version="1.0" standalone="no"?><!DOCTYPE svg PUBLIC "-//W3C//DTD SVG 1.1//EN" "http://www.w3.org/Graphics/SVG/1.1/DTD/svg11.dtd"><svg t="1684224273393" class="icon" viewBox="0 0 1024 1024" version="1.1" xmlns="http://www.w3.org/2000/svg" p-id="1150" xmlns:xlink="http://www.w3.org/1999/xlink" width="200" height="200"><path d="M992 384h-96v-96c0-17.6-14.4-32-32-32h-96V160c0-17.6-14.4-32-32-32H288c-17.6 0-32 14.4-32 32v96H160c-17.6 0-32 14.4-32 32v96H32c-17.6 0-32 14.4-32 32v448c0 17.6 14.4 32 32 32h160V640h64v256h128V640h64v256h128V640h64v256h128V640h64v256h160c17.6 0 32-14.4 32-32V416c0-17.6-14.4-32-32-32z" p-id="1151"></path></svg>