<?xml version="1.0" standalone="no"?><!DOCTYPE svg PUBLIC "-//W3C//DTD SVG 1.1//EN" "http://www.w3.org/Graphics/SVG/1.1/DTD/svg11.dtd"><svg t="1684204633573" class="icon" viewBox="0 0 1024 1024" version="1.1" xmlns="http://www.w3.org/2000/svg" p-id="1204" xmlns:xlink="http://www.w3.org/1999/xlink" width="200" height="200"><path d="M935.11983445 644.81962667l-244.08519111 244.76482332A370.78812445 370.78812445 0 0 1 430.10427221 997.45185223a352.63222557 352.63222557 0 0 1-251.70678442-103.25560889 364.42870557 364.42870557 0 0 1 4.85451776-513.70515001l277.77555-278.84354332a255.2020389 255.2020389 0 0 1 361.61308445 0 256.94966557 256.94966557 0 0 1 0 362.29271666l-279.37754112 280.1057189a155.34459221 155.34459221 0 0 1-215.20080555 0 152.72315221 152.72315221 0 0 1 0-215.34644224l245.39591112-246.1240889a48.54518557 48.54518557 0 1 1 68.73998222 68.59434667l-245.39591112 246.07554447a55.14732999 55.14732999 0 1 0 77.67229668 78.25483776L753.90065778 395.49155555a159.76220445 159.76220445 0 0 0 0-225.20111445 162.04382777 162.04382777 0 0 0-224.13312 0L251.70071666 448.89125888a270.49377223 270.49377223 0 0 0-4.61179221 376.61354667A256.22148779 256.22148779 0 0 0 430.05572779 900.3614811a273.21230222 273.21230222 0 0 0 192.19038776-79.32283221l244.13373668-244.76482332a48.54518557 48.54518557 0 0 1 68.73998222 68.5458011z" p-id="1205"></path></svg>