<?xml version="1.0" standalone="no"?><!DOCTYPE svg PUBLIC "-//W3C//DTD SVG 1.1//EN" "http://www.w3.org/Graphics/SVG/1.1/DTD/svg11.dtd"><svg t="1684204460269" class="icon" viewBox="0 0 1024 1024" version="1.1" xmlns="http://www.w3.org/2000/svg" p-id="1506" xmlns:xlink="http://www.w3.org/1999/xlink" width="200" height="200"><path d="M238.93333333 902.0952384h546.13333334v-156.038096H238.93333333v156.038096z m0-390.0952384h546.13333334V277.9428576h-97.52380907A58.51428587 58.51428587 0 0 1 629.02857173 219.42857173V121.9047616H238.93333333v390.0952384z m702.17142827 39.00952427c0-21.33820907-17.67131413-39.00952427-39.0095232-39.00952427s-39.00952427 17.67131413-39.00952427 39.00952427 17.67131413 39.00952427 39.00952427 39.0095232 39.00952427-17.67131413 39.0095232-39.0095232z m78.01904747 0v253.561904c0 10.37653333-9.12822827 19.5047616-19.5047616 19.50476266H863.08571413v97.52380907a58.51428587 58.51428587 0 0 1-58.51428586 58.51428587h-585.14285654A58.51428587 58.51428587 0 0 1 160.91428587 921.6V824.07619093H24.38095253a20.05089493 20.05089493 0 0 1-19.5047616-19.50476266V551.00952427c0-64.01462827 53.0139424-117.02857173 117.02857067-117.02857174h39.00952427V102.4A58.51428587 58.51428587 0 0 1 219.42857173 43.88571413H629.02857173c32.29988587 0 76.80975253 18.29546667 99.9424 41.42811414l92.6476192 92.6476192c23.1716576 23.1716576 41.42811413 67.64251413 41.42811414 99.9424v156.03809493h39.0095232c64.01462827 0 117.02857173 53.0139424 117.02857173 117.02857173z" p-id="1507"></path></svg>