<?xml version="1.0" standalone="no"?><!DOCTYPE svg PUBLIC "-//W3C//DTD SVG 1.1//EN" "http://www.w3.org/Graphics/SVG/1.1/DTD/svg11.dtd"><svg t="1685434881671" class="icon" viewBox="0 0 1024 1024" version="1.1" xmlns="http://www.w3.org/2000/svg" p-id="1136" xmlns:xlink="http://www.w3.org/1999/xlink" width="200" height="200"><path d="M953.86906294 567.23363335a55.23363335 55.23363335 0 0 1 55.23363336 55.23363206v331.40179753a55.23363335 55.23363335 0 0 1-55.23363336 55.23363336h-331.40179753a55.23363335 55.23363335 0 0 1-55.23363206-55.23363336v-331.40179753a55.23363335 55.23363335 0 0 1 55.23363206-55.23363206h331.40179753zM235.83183582 567.23363335a55.23363335 55.23363335 0 0 1 55.23363206 55.23363206v110.46726671h110.46726671a55.23363335 55.23363335 0 0 1 0 110.46726541H291.06546788v110.46726541a55.23363335 55.23363335 0 0 1-110.46726541 0v-110.46726541H70.13093706a55.23363335 55.23363335 0 0 1 0-110.46726541h110.46726541v-110.46726671a55.23363335 55.23363335 0 0 1 55.23363335-55.23363206z m662.80359506 110.46726541h-220.93453212v220.93453212h220.93453212v-220.93453212zM401.53273459 14.8973037a55.23363335 55.23363335 0 0 1 55.23363206 55.23363336v331.40179753a55.23363335 55.23363335 0 0 1-55.23363206 55.23363206H70.13093706a55.23363335 55.23363335 0 0 1-55.23363336-55.23363206V70.13093706a55.23363335 55.23363335 0 0 1 55.23363336-55.23363336h331.40179753z m552.33632835 0a55.23363335 55.23363335 0 0 1 55.23363336 55.23363336v331.40179753a55.23363335 55.23363335 0 0 1-55.23363336 55.23363206h-331.40179753a55.23363335 55.23363335 0 0 1-55.23363206-55.23363206V70.13093706a55.23363335 55.23363335 0 0 1 55.23363206-55.23363336h331.40179753zM346.29910124 125.36456912H125.36456912v220.93453212h220.93453212V125.36456912z m552.33632964 0h-220.93453212v220.93453212h220.93453212V125.36456912z" p-id="1137"></path></svg>